<?xml version="1.0" standalone="no"?>
<!DOCTYPE svg PUBLIC "-//W3C//DTD SVG 20010904//EN"
 "http://www.w3.org/TR/2001/REC-SVG-20010904/DTD/svg10.dtd">
<svg version="1.0" xmlns="http://www.w3.org/2000/svg"
 width="989.000000pt" height="1049.000000pt" viewBox="0 0 989.000000 1049.000000"
 preserveAspectRatio="xMidYMid meet">

<g transform="translate(0.000000,1049.000000) scale(0.100000,-0.100000)"
fill="#ffffff" stroke="none">
<path d="M4929 10177 c-24 -12 -204 -146 -399 -296 -195 -151 -426 -328 -514
-393 l-158 -119 -27 24 c-57 54 -37 52 -626 55 -302 1 -858 -1 -1235 -5 -668
-8 -686 -9 -725 -29 -51 -27 -79 -74 -79 -134 0 -41 13 -70 102 -228 l103
-181 -47 -333 c-25 -184 -43 -353 -41 -377 8 -76 71 -131 148 -131 35 0 53 12
153 102 11 10 32 24 48 30 15 7 28 16 28 20 0 5 6 8 13 8 7 0 19 9 27 20 8 11
22 20 32 20 10 0 18 5 18 10 0 6 7 10 15 10 8 0 15 4 15 8 0 5 16 14 35 22 19
8 35 17 35 22 0 4 11 8 24 8 14 0 28 5 31 10 3 6 16 10 29 10 12 0 28 6 35 13
9 9 52 11 159 9 152 -2 182 -6 182 -23 0 -13 -46 -59 -59 -59 -5 0 -11 -4 -13
-8 -1 -5 -25 -23 -53 -42 -50 -34 -76 -55 -100 -77 -8 -7 -18 -13 -24 -13 -6
0 -11 -4 -11 -10 0 -5 -6 -10 -12 -10 -7 0 -25 -10 -39 -23 -15 -12 -41 -33
-59 -47 -18 -14 -38 -29 -44 -35 -6 -5 -23 -16 -38 -24 -16 -8 -28 -18 -28
-23 0 -4 -6 -8 -13 -8 -7 0 -19 -9 -27 -20 -8 -11 -20 -20 -27 -20 -7 0 -13
-4 -13 -10 0 -5 -7 -10 -15 -10 -8 0 -15 -4 -15 -10 0 -5 -6 -10 -13 -10 -7 0
-19 -9 -27 -20 -8 -11 -18 -20 -22 -20 -7 0 -15 -5 -76 -57 -15 -13 -33 -23
-39 -23 -7 0 -13 -4 -13 -10 0 -5 -6 -10 -13 -10 -7 0 -19 -9 -27 -20 -8 -11
-18 -20 -22 -20 -8 0 -45 -32 -104 -87 -18 -18 -37 -33 -41 -33 -5 0 -15 -9
-23 -20 -8 -11 -20 -20 -27 -20 -7 0 -13 -4 -13 -10 0 -5 -7 -10 -15 -10 -8 0
-15 -4 -15 -10 0 -5 -6 -10 -13 -10 -7 0 -19 -9 -27 -20 -8 -11 -18 -20 -23
-20 -4 0 -18 -10 -31 -22 -35 -35 -65 -58 -74 -58 -7 0 -42 -28 -95 -75 -15
-14 -32 -25 -37 -25 -6 0 -10 -3 -10 -8 0 -4 -18 -18 -40 -32 -22 -14 -40 -28
-40 -32 0 -5 -6 -8 -13 -8 -7 0 -19 -9 -27 -20 -8 -11 -19 -20 -25 -20 -6 0
-17 -9 -25 -20 -8 -11 -20 -20 -26 -20 -7 0 -14 -3 -16 -7 -1 -5 -30 -28 -63
-53 -33 -25 -67 -53 -76 -62 -9 -10 -19 -18 -23 -18 -4 0 -16 -9 -28 -20 -12
-11 -27 -20 -34 -20 -6 0 -15 -7 -18 -17 -4 -9 -7 -1364 -7 -3012 1 -2455 -2
-2999 -13 -3013 -10 -14 -32 -18 -112 -20 -97 -3 -99 -3 -103 -28 -1 -14 -6
-27 -10 -30 -8 -6 -31 -72 -31 -88 0 -9 1100 -12 4711 -12 4483 0 4711 1 4704
18 -4 9 -10 39 -13 67 -3 27 -11 55 -18 62 -8 9 -45 13 -113 13 l-101 0 -1 38
c-4 120 -12 5450 -8 5607 2 105 4 239 4 298 l0 108 -30 17 c-16 9 -31 20 -33
25 -2 4 -10 7 -18 7 -8 0 -14 5 -14 10 0 6 -6 10 -14 10 -7 0 -27 14 -44 30
-18 17 -34 30 -37 30 -3 0 -21 15 -39 33 -47 45 -75 67 -86 67 -6 0 -10 3 -10
8 0 4 -18 18 -40 32 -22 14 -40 28 -40 32 0 5 -4 8 -10 8 -10 0 -38 21 -76 58
-13 12 -28 22 -34 22 -5 0 -10 5 -10 10 0 6 -7 10 -15 10 -8 0 -15 5 -15 10 0
6 -6 10 -13 10 -7 0 -19 9 -27 20 -8 11 -18 20 -22 20 -7 0 -33 22 -91 75 -12
11 -35 27 -52 35 -16 8 -37 23 -46 32 -9 10 -19 18 -23 18 -3 0 -18 11 -33 25
-60 53 -88 75 -100 75 -7 0 -13 5 -13 10 0 6 -5 10 -11 10 -7 0 -19 8 -28 18
-9 9 -29 24 -44 32 -16 8 -41 27 -58 42 -16 15 -31 28 -34 28 -3 0 -15 8 -26
18 -10 11 -32 25 -47 33 -15 8 -34 22 -43 31 -9 10 -20 18 -25 18 -5 0 -16 9
-24 20 -8 11 -19 20 -24 20 -5 0 -16 8 -25 18 -9 9 -29 24 -46 32 -16 8 -37
23 -46 32 -9 10 -21 18 -28 18 -6 0 -11 5 -11 10 0 6 -6 10 -12 10 -13 0 -41
22 -101 75 -15 14 -32 25 -37 25 -6 0 -10 5 -10 10 0 6 -6 10 -13 10 -7 0 -23
9 -35 20 -12 11 -24 20 -27 20 -27 0 -85 115 -85 168 0 9 -4 29 -9 46 -5 17
-15 51 -22 76 -24 91 -30 108 -49 131 -11 12 -20 29 -20 38 0 23 -145 513
-160 542 -42 80 -68 89 -309 105 -296 19 -359 18 -398 -6 -44 -26 -64 -61 -77
-132 l-11 -60 -300 229 c-1154 880 -1117 853 -1175 853 -15 0 -46 -10 -71 -23z
m364 -529 c161 -122 362 -275 447 -340 85 -65 222 -169 303 -230 82 -62 143
-114 137 -116 -13 -5 -2114 77 -2146 83 -11 3 -25 15 -31 27 -9 22 13 41 379
323 214 165 440 339 501 387 62 48 113 87 115 87 2 1 135 -99 295 -221z
m-1578 -653 c100 -210 122 -232 243 -241 37 -3 566 -25 1176 -50 610 -24 1110
-45 1111 -47 1 -1 12 -36 25 -77 28 -95 50 -137 92 -177 90 -86 205 -68 292
47 94 125 142 305 130 485 l-6 100 88 -4 c49 -1 106 -6 128 -10 l38 -6 59
-198 c32 -110 67 -214 79 -233 11 -20 20 -44 20 -54 0 -10 5 -22 10 -25 6 -3
10 -21 10 -38 0 -40 22 -141 80 -364 5 -21 21 -87 36 -148 14 -60 39 -148 55
-195 17 -47 37 -107 46 -135 18 -59 25 -77 47 -128 9 -21 16 -44 16 -52 0 -8
5 -15 10 -15 6 0 10 -9 10 -20 0 -10 11 -39 25 -64 14 -25 25 -52 25 -60 0 -9
5 -16 10 -16 6 0 10 -5 10 -12 0 -19 53 -128 62 -128 4 0 8 -9 8 -20 0 -11 5
-20 10 -20 6 0 10 -9 10 -19 0 -11 4 -21 9 -23 5 -1 27 -39 50 -83 23 -44 60
-111 82 -150 22 -38 43 -78 46 -87 3 -10 9 -18 14 -18 5 0 9 -9 9 -19 0 -11 4
-21 9 -23 12 -4 61 -103 61 -123 0 -8 5 -15 10 -15 6 0 10 -9 10 -20 0 -11 4
-20 8 -20 10 0 42 -65 42 -85 0 -8 4 -15 9 -15 22 0 18 -222 -7 -325 -15 -63
-23 -79 -33 -63 -9 13 -33 92 -49 158 -5 19 -16 59 -24 89 -9 29 -16 64 -16
77 0 13 -4 24 -10 24 -5 0 -10 11 -10 25 0 13 -4 34 -9 47 -5 13 -17 50 -26
83 -9 33 -21 68 -26 77 -5 10 -9 23 -9 30 -1 7 -9 23 -20 36 l-19 23 -27 -24
c-24 -23 -25 -28 -21 -93 11 -134 37 -254 92 -419 29 -89 46 -125 57 -125 4 0
8 -9 8 -20 0 -11 5 -20 10 -20 6 0 10 -7 10 -15 0 -9 14 -43 31 -77 17 -33 39
-86 49 -117 11 -31 38 -108 60 -171 23 -63 44 -125 47 -137 3 -13 9 -23 14
-23 5 0 9 -13 9 -30 0 -16 4 -30 9 -30 5 0 11 -10 14 -22 12 -47 32 -98 39
-98 5 0 8 -13 8 -29 0 -16 4 -31 8 -33 4 -1 15 -25 24 -53 9 -27 26 -74 37
-102 12 -29 30 -77 42 -105 11 -29 33 -91 49 -138 37 -109 54 -154 60 -160 6
-6 49 -125 57 -157 3 -13 9 -23 14 -23 5 0 9 -13 9 -30 0 -16 5 -30 10 -30 6
0 10 -7 10 -15 0 -8 11 -38 24 -67 57 -129 95 -240 96 -281 0 -16 5 -37 10
-48 7 -12 11 -202 12 -542 0 -458 -2 -528 -16 -571 -9 -26 -21 -79 -26 -118
-6 -38 -15 -78 -20 -88 -6 -10 -10 -32 -10 -49 0 -16 -5 -33 -10 -36 -6 -3
-10 -16 -10 -27 0 -12 -4 -35 -9 -52 -36 -119 -41 -151 -41 -249 0 -79 4 -115
17 -142 9 -19 20 -35 25 -35 16 0 8 -72 -12 -97 -49 -62 -109 -121 -155 -153
-27 -18 -52 -36 -55 -40 -15 -18 -208 -99 -240 -100 -8 0 -28 -7 -44 -15 -15
-8 -48 -15 -71 -15 -35 0 -49 6 -73 29 -52 52 -58 105 -36 287 6 55 -6 89 -44
130 -30 31 -61 97 -68 143 -4 23 -11 44 -15 47 -5 3 -9 16 -9 30 0 13 -4 32
-9 42 -5 9 -33 64 -61 122 -29 58 -57 107 -61 108 -5 2 -9 9 -9 16 0 17 -109
121 -153 145 -21 12 -48 21 -62 21 -13 0 -27 4 -30 10 -3 5 -24 10 -45 10 -21
0 -42 5 -45 10 -3 6 -22 10 -41 10 -37 0 -69 25 -95 71 -14 26 -27 92 -36 176
-3 29 -9 53 -14 53 -5 0 -9 12 -9 28 0 31 -28 170 -37 185 -3 5 -10 39 -15 76
-25 189 -29 251 -20 351 10 112 6 200 -9 200 -5 0 -9 8 -9 18 0 11 -11 32 -25
48 -14 16 -25 35 -25 42 0 6 -5 12 -11 12 -7 0 -19 8 -28 18 -20 23 -67 33
-98 21 -21 -8 -23 -14 -23 -83 0 -41 5 -78 10 -81 16 -10 12 -144 -4 -161 -36
-36 -91 -8 -116 59 -7 17 -15 41 -20 52 -19 51 -53 152 -57 173 -3 12 -9 22
-14 22 -5 0 -9 6 -9 13 0 8 -16 46 -35 86 -19 39 -35 78 -35 86 0 8 -4 15 -8
15 -10 0 -42 65 -42 85 0 8 -4 15 -10 15 -5 0 -10 9 -10 19 0 11 -3 21 -7 23
-12 5 -63 104 -63 122 0 9 -4 16 -10 16 -5 0 -10 7 -10 16 0 8 -7 22 -15 30
-8 9 -15 24 -15 35 0 10 -4 19 -10 19 -5 0 -10 9 -10 20 0 11 -4 20 -10 20 -5
0 -10 9 -10 20 0 11 -4 20 -10 20 -5 0 -10 7 -10 15 0 20 -32 85 -42 85 -22 0
-3 44 36 84 46 45 76 93 76 121 0 8 5 15 10 15 6 0 10 7 10 15 0 9 11 38 25
65 14 27 25 56 25 65 0 8 5 15 10 15 6 0 10 9 10 20 0 11 5 20 10 20 6 0 10
33 10 80 0 47 -4 80 -10 80 -5 0 -10 11 -10 25 0 14 -6 32 -12 41 -45 52 -67
74 -77 74 -6 0 -11 5 -11 10 0 6 -9 10 -20 10 -11 0 -20 5 -20 10 0 15 -89 12
-104 -3 -32 -32 -26 -143 16 -256 17 -48 20 -65 11 -68 -7 -3 -13 -11 -13 -20
0 -8 -6 -20 -12 -27 -7 -8 -20 -23 -28 -35 -23 -33 -45 -26 -64 22 -10 23 -29
66 -42 95 -13 29 -24 59 -24 67 0 8 -4 15 -8 15 -11 0 -45 120 -44 155 1 49
14 105 23 105 5 0 9 14 9 30 0 17 5 30 10 30 6 0 10 12 10 26 0 14 5 35 12 47
6 12 15 38 19 57 18 81 29 120 59 210 17 52 36 109 41 125 6 17 14 101 19 188
7 129 5 167 -7 210 -8 28 -17 66 -20 82 -3 17 -9 32 -12 35 -11 9 -53 134 -58
173 -3 20 -9 40 -14 43 -5 3 -9 16 -9 29 0 13 -5 35 -11 49 -13 27 -41 33
-220 42 l-96 5 -11 77 c-7 42 -12 87 -12 100 0 12 -4 22 -10 22 -5 0 -10 7
-10 15 0 17 -43 65 -57 65 -5 0 -15 9 -23 20 -8 11 -20 20 -26 20 -16 0 -104
84 -104 99 0 11 -7 22 -37 56 -7 7 -13 21 -13 29 0 9 -4 16 -10 16 -5 0 -10 9
-10 20 0 11 -4 20 -10 20 -5 0 -10 9 -10 20 0 11 -4 28 -9 38 -6 9 -18 44 -27
76 -17 57 -45 98 -107 155 -16 14 -48 45 -73 69 -24 23 -46 42 -49 42 -3 0
-20 15 -39 33 -18 17 -47 43 -66 57 -18 14 -39 30 -45 37 -22 21 -85 53 -105
53 -10 0 -22 5 -25 10 -4 6 -71 10 -168 10 l-162 0 -13 -27 c-6 -15 -12 -51
-12 -80 0 -61 -25 -93 -72 -93 -15 0 -28 -4 -28 -10 0 -5 -6 -10 -14 -10 -19
0 -96 -42 -96 -52 0 -4 -7 -8 -15 -8 -8 0 -15 -4 -15 -10 0 -5 -6 -10 -13 -10
-7 0 -22 -8 -33 -18 -10 -10 -34 -25 -51 -32 -18 -8 -33 -18 -33 -22 0 -5 -11
-8 -25 -8 -14 0 -25 -4 -25 -10 0 -5 -9 -10 -20 -10 -11 0 -20 -4 -20 -10 0
-5 -7 -10 -15 -10 -8 0 -15 -4 -15 -10 0 -5 -9 -10 -20 -10 -11 0 -20 -4 -20
-10 0 -5 -11 -10 -25 -10 -14 0 -25 -4 -25 -10 0 -5 -13 -10 -29 -10 -17 0
-33 -4 -36 -10 -3 -5 -17 -10 -30 -10 -13 0 -27 -4 -30 -10 -3 -5 -30 -10 -60
-10 -54 0 -65 8 -65 48 0 26 -34 132 -42 132 -4 0 -8 7 -8 15 0 17 -48 98 -61
103 -5 2 -9 9 -9 16 0 7 -9 21 -19 33 -31 33 -51 80 -51 118 0 19 -4 35 -9 35
-5 0 -11 9 -14 20 -3 12 -14 20 -26 20 -12 0 -21 5 -21 10 0 6 -11 10 -25 10
-14 0 -25 5 -25 10 0 6 -9 10 -20 10 -11 0 -20 5 -20 10 0 6 -5 10 -10 10 -6
0 -20 9 -32 20 -12 11 -28 20 -35 20 -7 0 -13 5 -13 10 0 6 -5 10 -11 10 -7 0
-19 8 -28 18 -9 10 -38 33 -66 52 -27 19 -51 37 -53 42 -2 4 -10 8 -18 8 -8 0
-14 4 -14 8 0 5 -16 14 -35 22 -19 8 -35 17 -35 20 0 3 -16 12 -35 20 -19 8
-35 17 -35 22 0 4 -9 8 -20 8 -11 0 -20 4 -20 8 0 5 -16 14 -35 22 -19 8 -35
17 -35 22 0 4 -7 8 -15 8 -8 0 -24 5 -35 10 -11 6 -29 15 -40 20 -11 6 -31 10
-44 10 -14 0 -27 4 -30 9 -3 5 -20 11 -38 14 -80 14 -104 20 -115 29 -7 6 -20
8 -28 4 -10 -3 -18 1 -22 12 -10 27 -24 32 -98 32 -38 0 -107 6 -152 14 l-83
13 0 -31 c0 -17 -4 -36 -8 -43 -4 -6 -41 -14 -82 -16 -88 -6 -147 -15 -175
-26 -40 -16 -92 -31 -108 -31 -9 0 -17 -5 -17 -12 0 -6 -3 -9 -6 -5 -3 3 2 63
11 133 9 71 15 147 12 171 -3 26 -24 77 -56 133 -28 49 -51 92 -51 95 0 5 414
9 1411 13 l676 2 78 -165z m-877 -834 c76 -83 100 -107 114 -116 110 -71 218
-174 274 -260 18 -30 34 -59 34 -65 0 -5 4 -10 9 -10 5 0 11 -10 14 -22 12
-47 32 -98 39 -98 5 0 8 -7 8 -15 0 -48 113 -205 147 -205 7 0 13 -4 13 -10 0
-5 11 -10 24 -10 14 0 28 -4 31 -10 3 -5 17 -10 30 -10 13 0 27 -4 30 -10 9
-15 233 -12 277 3 21 7 41 16 44 20 4 4 16 7 26 7 10 0 18 5 18 10 0 6 9 10
19 10 11 0 23 5 26 10 3 6 15 10 26 10 10 0 19 5 19 10 0 6 7 10 15 10 8 0 15
5 15 10 0 6 7 10 15 10 17 0 71 29 132 71 23 16 45 29 49 29 3 0 14 8 23 18 9
9 28 23 43 31 15 8 37 22 47 33 11 10 23 18 26 18 3 0 11 5 18 10 18 15 137
90 143 90 3 0 23 18 45 40 45 46 82 52 117 20 12 -11 26 -20 32 -20 5 0 10 -4
10 -10 0 -5 6 -10 13 -10 6 0 24 -10 38 -23 15 -12 41 -33 59 -47 43 -33 63
-52 75 -71 22 -35 51 -75 67 -93 10 -11 18 -26 18 -33 0 -7 4 -13 8 -13 5 0
17 -18 28 -40 10 -22 22 -40 27 -40 4 0 7 -5 7 -12 0 -18 33 -88 42 -88 4 0 8
-9 8 -20 0 -11 3 -20 8 -20 4 0 13 -12 19 -27 7 -16 23 -39 35 -53 13 -14 32
-42 43 -62 11 -21 23 -38 27 -38 3 0 9 -9 13 -19 3 -11 18 -33 33 -49 15 -16
43 -48 62 -72 19 -24 46 -55 60 -70 14 -15 41 -46 61 -68 20 -23 42 -42 48
-42 6 0 11 -4 11 -10 0 -5 9 -10 20 -10 11 0 20 -4 20 -10 0 -5 9 -10 20 -10
11 0 20 -4 20 -9 0 -5 11 -12 25 -15 22 -6 47 -27 81 -68 13 -17 22 -52 36
-143 11 -78 4 -315 -10 -324 -5 -3 -12 -19 -15 -36 -9 -47 -24 -105 -42 -165
-10 -30 -19 -70 -22 -87 -3 -18 -9 -33 -14 -33 -5 0 -9 -13 -9 -30 0 -16 -4
-30 -8 -30 -12 0 -35 -140 -40 -240 -4 -81 21 -240 38 -240 3 0 13 -22 20 -50
7 -27 17 -50 21 -50 4 0 9 -10 12 -22 6 -29 30 -91 37 -98 6 -6 49 -125 57
-157 3 -13 9 -23 14 -23 5 0 9 -13 9 -30 0 -16 4 -30 8 -30 9 0 42 -64 42 -80
0 -6 31 -74 69 -152 39 -79 76 -158 83 -176 7 -17 16 -32 20 -32 5 0 8 -8 8
-17 0 -10 12 -40 25 -68 14 -27 25 -56 25 -62 0 -7 5 -13 10 -13 6 0 10 -7 10
-15 0 -8 16 -47 35 -86 19 -40 35 -78 35 -86 0 -7 4 -13 9 -13 5 0 11 -10 14
-22 12 -47 32 -98 39 -98 5 0 8 -9 8 -20 0 -11 5 -20 10 -20 6 0 10 -7 10 -15
0 -26 97 -208 132 -248 18 -21 58 -65 88 -97 75 -80 75 -80 104 -138 30 -58
33 -82 11 -82 -8 0 -15 5 -15 10 0 6 -8 10 -18 10 -10 0 -24 9 -32 20 -8 11
-20 20 -27 20 -7 0 -13 5 -13 10 0 6 -7 10 -15 10 -8 0 -23 4 -33 9 -9 5 -28
13 -42 19 -14 5 -38 15 -53 21 -15 6 -39 11 -52 11 -13 0 -27 4 -30 10 -3 5
-22 10 -41 10 -19 0 -34 5 -34 10 0 6 -11 10 -24 10 -14 0 -28 5 -31 10 -3 6
-15 10 -26 10 -10 0 -19 5 -19 10 0 6 -6 10 -12 10 -7 0 -29 14 -48 30 -19 16
-38 30 -42 30 -5 0 -8 14 -8 30 0 17 5 30 11 30 23 0 39 30 39 74 0 25 4 48
10 51 6 3 10 48 10 101 0 56 -4 94 -10 94 -5 0 -10 8 -10 18 0 9 -15 28 -32
42 -18 14 -72 64 -120 113 -49 48 -91 87 -93 87 -6 0 -72 63 -291 278 -103
100 -188 182 -191 182 -8 0 -103 101 -103 111 0 5 -5 9 -11 9 -6 0 -28 18 -49
40 -21 22 -42 40 -47 40 -5 0 -15 10 -23 21 -19 28 -147 159 -155 159 -3 0
-41 36 -85 80 -44 44 -82 80 -85 80 -4 0 -28 23 -55 50 -27 28 -53 50 -59 50
-6 0 -11 4 -11 9 0 11 -115 131 -125 131 -10 0 -85 80 -85 91 0 5 -5 9 -10 9
-6 0 -69 59 -140 130 -71 72 -133 130 -138 130 -4 0 -14 10 -22 21 -20 29
-107 119 -115 119 -10 0 -85 80 -85 91 0 5 -5 9 -10 9 -6 0 -42 32 -80 70 -38
39 -74 70 -80 70 -5 0 -10 4 -10 9 0 11 -95 111 -105 111 -4 0 -24 18 -45 40
-21 22 -41 40 -45 40 -4 0 -24 -18 -45 -40 -21 -22 -41 -40 -45 -40 -8 0 -74
-69 -95 -99 -8 -11 -18 -21 -23 -21 -4 0 -61 -54 -127 -120 -66 -66 -123 -120
-127 -120 -5 0 -15 -10 -23 -21 -22 -32 -128 -139 -137 -139 -5 0 -15 -9 -23
-21 -22 -31 -67 -79 -75 -79 -4 0 -24 -18 -45 -40 -21 -22 -41 -40 -45 -40
-10 0 -105 -100 -105 -111 0 -5 -5 -9 -11 -9 -10 0 -86 -77 -159 -159 -19 -22
-40 -40 -45 -41 -6 0 -17 -10 -25 -21 -8 -12 -32 -39 -52 -61 -21 -22 -38 -44
-38 -49 0 -5 -6 -9 -14 -9 -8 0 -17 -6 -19 -12 -3 -7 -6 6 -6 30 -1 23 -5 42
-11 42 -5 0 -10 11 -10 25 0 27 -43 119 -66 143 -8 7 -14 17 -14 21 0 4 -8 17
-17 29 -10 11 -25 30 -33 41 -8 12 -18 21 -23 21 -5 0 -26 18 -47 40 -21 22
-46 40 -54 40 -9 0 -16 5 -16 10 0 6 -9 10 -20 10 -11 0 -20 5 -20 10 0 6 -13
10 -30 10 -16 0 -30 5 -30 10 0 6 -20 10 -45 10 -25 0 -45 5 -45 10 0 6 -28
10 -65 10 -37 0 -65 -4 -65 -10 0 -5 -7 -10 -15 -10 -8 0 -15 -4 -15 -10 0 -5
-7 -10 -15 -10 -19 0 -20 45 -2 66 40 48 107 114 116 114 6 0 11 5 11 10 0 6
7 10 15 10 8 0 15 5 15 10 0 6 7 10 15 10 8 0 15 5 15 10 0 6 7 10 15 10 8 0
15 5 15 10 0 6 9 10 20 10 11 0 20 5 20 10 0 6 7 10 15 10 8 0 15 5 15 10 0 6
9 10 21 10 12 0 34 14 49 30 22 24 36 30 69 30 30 0 41 4 41 15 0 20 -45 65
-65 65 -8 0 -15 5 -15 10 0 6 -7 10 -15 10 -8 0 -15 5 -15 10 0 6 -11 10 -25
10 -14 0 -25 5 -25 10 0 6 -13 10 -30 10 -16 0 -30 5 -30 10 0 6 -33 10 -80
10 -47 0 -80 -4 -80 -10 0 -5 -11 -10 -25 -10 -14 0 -25 -4 -25 -10 0 -5 -6
-10 -13 -10 -7 0 -19 -9 -27 -20 -8 -11 -22 -20 -32 -20 -10 0 -18 -4 -18 -10
0 -5 -6 -10 -14 -10 -7 0 -19 -13 -26 -30 -7 -16 -18 -30 -24 -30 -12 0 -79
-131 -92 -179 l-6 -24 -14 24 c-7 13 -13 38 -14 56 0 18 -4 42 -9 55 -29 75
-45 108 -53 108 -4 0 -8 8 -8 18 0 11 -9 29 -20 42 -11 13 -20 26 -20 30 0 11
-36 50 -46 50 -5 0 -16 9 -24 20 -8 11 -20 20 -27 20 -7 0 -13 5 -13 10 0 6
-7 10 -15 10 -8 0 -15 5 -15 10 0 6 -7 10 -15 10 -8 0 -15 5 -15 10 0 6 -13
10 -30 10 -16 0 -30 5 -30 10 0 6 -35 10 -85 10 -84 0 -85 0 -85 -25 0 -24 39
-75 57 -75 5 0 15 -10 23 -21 8 -12 31 -39 50 -60 53 -58 59 -66 72 -94 6 -14
14 -25 18 -25 4 0 13 -14 20 -31 7 -17 18 -36 25 -42 6 -7 15 -26 19 -42 l8
-30 -20 23 c-11 12 -24 22 -31 22 -6 0 -11 5 -11 10 0 6 -7 10 -15 10 -8 0
-15 5 -15 10 0 6 -7 10 -15 10 -8 0 -15 5 -15 10 0 6 -11 10 -25 10 -14 0 -25
5 -25 10 0 6 -16 10 -35 10 -19 0 -35 5 -35 10 0 6 -42 10 -105 10 -63 0 -105
-4 -105 -10 0 -5 -9 -10 -19 -10 -11 0 -21 -6 -24 -12 -5 -17 -16 202 -24 504
-5 190 -3 253 7 277 7 17 16 31 19 31 4 0 16 8 27 18 10 9 31 23 46 31 15 8
37 22 47 33 11 10 25 18 31 18 5 0 10 4 10 8 0 5 12 15 27 23 31 16 55 34 89
67 13 12 26 22 29 22 3 0 16 10 29 23 12 12 38 33 56 47 18 14 43 34 54 45 12
11 37 31 56 45 19 13 40 29 46 35 6 5 26 21 44 35 18 14 38 30 44 36 6 5 26
17 44 25 17 7 32 17 32 21 0 5 7 8 15 8 8 0 15 5 15 10 0 6 5 10 11 10 6 0 16
6 24 13 24 22 55 47 60 47 3 0 19 13 36 30 17 16 44 35 60 42 16 7 29 16 29
20 0 5 6 8 14 8 8 0 16 4 18 8 2 5 32 28 68 52 36 24 67 46 70 49 3 3 17 12
33 20 15 8 27 18 27 23 0 4 4 8 10 8 10 0 25 12 89 67 20 18 47 38 61 45 14 7
32 20 40 28 8 8 28 22 45 30 29 15 40 23 92 67 14 12 38 27 52 35 14 7 33 21
42 30 9 10 20 18 25 18 5 0 16 9 24 20 8 11 22 20 32 20 10 0 18 5 18 10 0 6
7 10 15 10 8 0 15 4 15 8 0 5 30 24 68 43 37 19 69 37 72 40 3 3 20 12 38 20
17 8 32 17 32 21 0 5 9 8 20 8 11 0 20 3 20 8 0 12 43 29 78 31 26 1 41 -6 60
-28z m4912 -439 c0 -5 12 -15 28 -23 15 -8 34 -22 43 -31 9 -10 21 -18 28 -18
6 0 11 -4 11 -10 0 -5 5 -10 10 -10 6 0 20 -9 32 -20 12 -11 28 -20 35 -20 7
0 13 -4 13 -8 0 -5 20 -19 45 -32 25 -13 58 -35 73 -49 15 -14 40 -32 55 -40
15 -8 27 -18 27 -23 0 -4 6 -8 13 -8 7 0 19 -9 27 -20 8 -11 19 -20 25 -20 6
0 17 -9 25 -20 8 -11 20 -20 28 -20 7 0 19 -6 26 -12 7 -7 28 -24 46 -38 18
-14 39 -31 46 -37 7 -7 17 -13 23 -13 6 0 11 -4 11 -10 0 -5 6 -10 14 -10 7 0
27 -13 44 -30 18 -16 36 -30 42 -30 5 0 10 -4 10 -10 0 -5 7 -10 15 -10 8 0
15 -4 15 -10 0 -5 6 -10 13 -10 6 0 28 -14 47 -30 19 -16 40 -30 46 -30 5 0
19 -8 30 -17 11 -10 32 -25 46 -33 34 -19 85 -59 114 -87 13 -13 28 -23 34
-23 5 0 10 -4 10 -8 0 -5 12 -15 27 -23 31 -16 55 -34 89 -66 13 -13 26 -23
30 -23 14 0 45 -45 53 -79 8 -32 17 -1386 15 -2196 -6 -2392 -5 -3145 5 -3193
14 -69 0 -97 -44 -86 -36 8 -159 10 -310 4 -60 -3 -153 -1 -205 4 -73 6 -116
4 -184 -8 -114 -20 -116 -20 -81 6 41 32 223 215 263 265 19 23 42 52 53 64
10 12 19 25 19 29 0 6 12 22 50 67 5 7 10 19 10 28 0 8 5 15 10 15 6 0 10 9
10 20 0 11 3 20 8 20 9 0 32 63 39 108 3 17 9 32 14 32 5 0 9 11 9 25 0 14 4
33 9 43 22 41 61 235 61 300 0 22 4 52 10 66 5 14 12 119 16 233 3 114 8 242
10 283 16 312 20 570 14 873 -7 314 -10 359 -28 417 -11 36 -28 92 -37 125 -9
33 -20 68 -26 77 -5 10 -9 25 -9 33 0 8 -4 23 -9 33 -5 9 -16 40 -25 67 -8 28
-34 102 -56 165 -22 63 -53 151 -67 195 -15 44 -31 82 -35 83 -4 2 -8 9 -8 15
0 23 -35 127 -42 127 -4 0 -8 14 -8 30 0 17 -4 30 -9 30 -5 0 -11 10 -14 23
-12 46 -32 97 -39 97 -5 0 -8 14 -8 30 0 17 -4 30 -9 30 -5 0 -12 17 -16 37
-4 21 -10 40 -14 43 -8 6 -81 225 -81 245 0 7 -3 15 -7 17 -16 6 -56 135 -60
191 -3 33 0 79 6 104 10 39 23 135 38 288 8 76 -26 258 -62 340 -13 28 -35 78
-51 113 -15 34 -31 62 -36 62 -4 0 -8 7 -8 15 0 20 -32 85 -42 85 -4 0 -8 9
-8 20 0 11 -4 20 -10 20 -5 0 -10 7 -10 15 0 20 -49 119 -61 123 -5 2 -9 12
-9 23 0 10 -4 19 -10 19 -5 0 -10 7 -10 16 0 16 -27 70 -45 90 -5 6 -21 34
-34 62 -14 29 -28 52 -33 52 -4 0 -8 9 -8 20 0 11 -4 20 -10 20 -5 0 -10 6
-10 13 0 7 -11 37 -25 65 -14 29 -25 59 -25 67 0 8 -4 15 -10 15 -5 0 -10 9
-10 20 0 11 -4 20 -10 20 -5 0 -10 7 -10 15 0 9 -18 51 -40 95 -45 90 -49 110
-20 110 11 0 20 -4 20 -8z m-4070 -1802 c38 -38 72 -70 75 -70 4 0 24 -18 45
-40 21 -22 41 -40 45 -40 8 0 53 -48 75 -79 8 -12 18 -21 23 -21 4 0 35 -27
67 -60 32 -33 63 -60 67 -60 5 0 15 -9 23 -21 21 -31 67 -79 74 -79 4 0 65
-58 136 -130 71 -71 134 -130 140 -130 5 0 10 -4 10 -9 0 -11 55 -71 65 -71 3
0 28 -22 55 -50 27 -27 52 -50 55 -50 3 0 28 -22 55 -50 27 -27 53 -50 59 -50
6 0 11 -4 11 -9 0 -11 75 -91 85 -91 3 0 28 -22 55 -50 27 -27 53 -50 59 -50
6 0 11 -4 11 -10 0 -10 256 -270 266 -270 6 0 63 -60 104 -109 14 -17 29 -31
33 -31 5 0 35 -28 68 -62 32 -35 62 -66 66 -71 4 -4 32 -30 61 -57 28 -28 55
-50 58 -50 3 0 23 -18 44 -40 21 -22 41 -40 44 -40 6 0 33 -21 75 -60 46 -42
52 -61 41 -137 -5 -37 -10 -71 -10 -75 0 -20 -31 -4 -63 32 -19 22 -37 40 -41
40 -6 0 -69 56 -132 118 -24 23 -46 42 -50 42 -3 0 -19 14 -34 30 -15 17 -31
30 -34 30 -3 0 -55 50 -116 110 -60 61 -112 110 -116 110 -3 0 -23 19 -43 42
-51 58 -189 198 -196 198 -3 0 -30 24 -60 53 -112 108 -156 147 -165 147 -6 0
-10 4 -10 10 0 10 -135 150 -146 150 -7 0 -52 48 -74 79 -8 12 -18 21 -23 21
-4 0 -30 23 -57 50 -27 28 -51 50 -55 50 -3 0 -46 41 -95 90 -49 50 -92 90
-95 90 -7 0 -85 81 -125 129 -14 17 -29 31 -33 31 -5 0 -30 23 -57 50 -27 28
-51 50 -55 50 -3 0 -46 41 -95 90 -49 50 -92 90 -95 90 -3 0 -42 36 -85 80
l-80 81 -90 -91 c-49 -49 -92 -90 -95 -90 -3 0 -33 -27 -65 -60 -32 -33 -62
-60 -65 -60 -10 0 -65 -61 -65 -71 0 -5 -5 -9 -11 -9 -6 0 -32 -22 -59 -50
-27 -27 -51 -50 -55 -50 -3 0 -82 -76 -175 -170 -93 -93 -172 -170 -175 -170
-4 0 -33 -27 -65 -60 -32 -33 -64 -60 -69 -60 -6 0 -11 -4 -11 -9 0 -11 -75
-91 -85 -91 -4 0 -24 -18 -45 -40 -21 -22 -42 -40 -45 -40 -4 0 -28 -23 -54
-52 -25 -28 -54 -58 -65 -67 -10 -9 -38 -35 -62 -58 -24 -24 -47 -43 -51 -43
-5 0 -19 -15 -33 -32 -14 -18 -42 -48 -63 -68 -21 -19 -58 -54 -82 -77 -25
-24 -47 -43 -51 -43 -9 0 -84 -83 -84 -92 0 -5 -5 -8 -10 -8 -6 0 -65 -54
-131 -120 -66 -66 -123 -120 -126 -120 -3 0 -18 -13 -33 -30 -15 -16 -32 -30
-37 -30 -5 0 -15 -9 -23 -20 -8 -11 -19 -20 -25 -20 -5 0 -21 -9 -35 -20 -14
-11 -33 -20 -42 -20 -10 0 -18 -4 -18 -10 0 -15 -39 -12 -56 4 -8 8 -14 33
-14 55 0 39 6 46 149 188 82 81 167 163 188 181 105 91 166 148 286 268 73 72
139 141 147 153 8 11 18 21 23 21 5 0 26 18 47 40 21 22 41 40 45 40 3 0 28
23 55 50 27 28 51 50 55 50 3 0 46 41 95 90 49 50 93 90 97 90 4 0 19 14 33
31 43 52 98 109 105 109 4 0 20 14 35 30 15 17 31 30 34 30 4 0 56 50 116 110
60 61 112 110 115 110 8 0 75 70 95 99 8 11 18 21 23 21 9 0 94 86 117 119 8
11 18 21 23 21 4 0 35 27 67 60 32 33 62 60 65 60 4 0 20 14 35 30 15 17 31
30 35 30 10 0 85 80 85 91 0 5 6 9 13 9 6 0 23 14 37 30 39 46 62 39 140 -40z
m-2940 -80 c0 -5 11 -10 25 -10 14 0 25 -4 25 -10 0 -5 9 -10 20 -10 11 0 20
-4 20 -10 0 -5 7 -10 15 -10 8 0 15 -4 15 -10 0 -5 8 -10 18 -10 10 0 24 -9
32 -20 8 -11 20 -20 27 -20 7 0 13 -4 13 -10 0 -5 7 -10 15 -10 8 0 15 -4 15
-10 0 -5 9 -10 20 -10 11 0 20 -4 20 -10 0 -5 9 -10 20 -10 11 0 20 -4 20 -10
0 -5 5 -10 11 -10 11 0 39 -24 39 -34 0 -3 -36 -6 -80 -6 -47 0 -80 -4 -80
-10 0 -5 -16 -10 -35 -10 -19 0 -35 -4 -35 -10 0 -5 -11 -10 -25 -10 -14 0
-25 -4 -25 -10 0 -5 -9 -10 -20 -10 -11 0 -20 -4 -20 -10 0 -5 -11 -10 -25
-10 -14 0 -25 -4 -25 -10 0 -5 -7 -10 -15 -10 -8 0 -15 -4 -15 -10 0 -5 -9
-10 -21 -10 -21 0 -21 3 -15 113 13 238 15 247 42 247 13 0 24 -4 24 -10z
m2900 -490 c21 -22 41 -40 45 -40 3 0 50 -45 105 -100 55 -55 102 -100 105
-100 3 0 55 -49 115 -110 60 -60 112 -110 115 -110 4 0 28 -22 55 -50 27 -27
53 -50 59 -50 6 0 11 -4 11 -10 0 -15 321 -330 336 -330 4 0 14 -8 23 -19 71
-82 90 -101 97 -101 5 -1 25 -19 44 -41 54 -62 94 -101 140 -139 49 -40 223
-213 291 -289 26 -28 49 -51 53 -51 4 0 30 -24 60 -52 64 -63 93 -88 105 -88
20 0 40 -2016 21 -2082 -9 -31 -16 -38 -35 -38 -14 0 -25 5 -25 10 0 6 -30 10
-70 10 -38 0 -70 4 -70 9 0 10 -43 16 -220 31 -63 5 -146 14 -185 20 -38 6
-119 15 -180 20 -60 5 -150 14 -200 20 -91 12 -281 22 -715 39 -242 10 -863
-1 -1095 -19 -66 -5 -185 -14 -265 -20 -215 -16 -451 -40 -535 -55 -29 -5 -44
-3 -51 6 -7 9 -8 125 -5 344 3 182 3 420 0 530 -4 110 -3 385 1 612 4 226 5
440 3 476 -6 70 -7 68 93 158 16 15 49 49 74 77 25 28 51 51 58 52 6 0 12 4
12 8 0 9 48 59 136 144 27 26 59 57 70 70 12 13 41 39 65 58 23 19 53 45 66
58 12 12 25 22 29 22 4 0 35 28 69 63 34 34 70 69 81 78 10 9 35 34 54 57 19
23 38 42 42 42 9 0 61 48 174 158 46 45 86 82 90 82 3 0 27 23 54 50 27 28 52
50 55 50 6 0 72 68 135 139 19 22 40 40 45 41 6 0 17 10 25 21 21 30 87 99 95
99 10 0 105 100 105 111 0 5 5 9 11 9 6 0 24 14 39 30 15 17 33 30 40 30 13 0
90 77 90 91 0 19 23 7 60 -31z m-1830 -30 c0 -5 14 -10 30 -10 17 0 30 -4 30
-10 0 -5 16 -10 35 -10 19 0 35 -4 35 -10 0 -5 9 -10 20 -10 11 0 20 -4 20
-10 0 -5 7 -10 15 -10 8 0 15 -4 15 -10 0 -5 5 -10 11 -10 6 0 24 -13 39 -30
15 -16 31 -30 35 -30 14 0 105 -103 111 -125 6 -26 -14 -55 -38 -55 -8 0 -20
-9 -28 -20 -8 -11 -18 -20 -23 -20 -5 0 -22 -15 -38 -32 -44 -50 -48 -55 -61
-83 -18 -39 -25 -30 -33 38 -4 34 -13 81 -21 105 -15 47 -73 164 -84 172 -4 3
-13 16 -20 29 -15 28 -21 37 -72 91 -20 22 -41 40 -47 40 -6 0 -11 5 -11 10 0
6 18 10 40 10 22 0 40 -4 40 -10z m-710 -15 c0 -3 -16 -21 -35 -41 -19 -19
-35 -38 -35 -43 0 -7 -11 -22 -50 -68 -5 -7 -10 -19 -10 -27 0 -8 -4 -16 -10
-18 -10 -3 -36 -65 -68 -163 -9 -27 -19 -52 -22 -55 -22 -19 -53 -260 -44
-342 6 -55 7 -58 33 -58 19 0 39 13 69 45 23 25 42 52 42 60 0 8 4 15 8 15 5
0 17 18 27 40 10 22 22 40 27 40 4 0 8 9 8 20 0 11 5 20 10 20 6 0 10 8 10 18
0 11 9 29 20 42 11 12 22 31 25 41 4 11 10 19 14 19 4 0 16 18 26 40 10 22 22
40 26 40 4 0 10 9 14 19 3 11 18 33 33 49 15 17 34 39 42 51 8 12 17 21 20 21
3 0 7 -202 8 -449 l4 -450 -94 -93 c-105 -103 -134 -128 -148 -128 -6 0 -10
-4 -10 -10 0 -5 -5 -10 -11 -10 -6 0 -17 -7 -26 -15 -12 -13 -14 -41 -11 -163
3 -145 3 -148 30 -175 15 -15 32 -27 38 -27 5 0 10 -4 10 -10 0 -5 9 -10 19
-10 11 0 23 -4 26 -10 3 -5 17 -10 30 -10 18 0 26 -7 31 -27 10 -36 -4 -831
-15 -923 -9 -76 -19 -311 -30 -760 l-6 -245 -80 -6 c-44 -4 -107 -14 -140 -23
-32 -9 -65 -16 -72 -16 -7 0 -32 -9 -56 -19 -23 -11 -55 -22 -72 -25 l-30 -6
-3 1754 c-4 1813 -4 1800 33 1842 6 6 17 21 25 33 8 11 18 21 23 21 5 0 22 14
37 30 15 17 32 30 37 30 5 0 15 9 23 20 8 11 20 20 27 20 7 0 13 5 13 10 0 6
6 10 13 10 7 0 19 9 27 20 8 11 20 20 27 20 7 0 13 5 13 10 0 6 9 10 20 10 11
0 20 5 20 10 0 6 20 10 45 10 25 0 45 -2 45 -5z m515 -276 c4 -11 11 -19 16
-19 5 0 9 -9 9 -20 0 -11 4 -20 8 -20 10 0 42 -65 42 -85 0 -8 5 -15 10 -15 6
0 10 -9 10 -20 0 -11 4 -20 8 -20 5 0 17 -18 27 -40 10 -22 22 -40 27 -40 4 0
8 -9 8 -20 0 -11 4 -20 8 -20 5 0 14 -11 20 -25 11 -24 5 -32 -123 -159 -74
-73 -135 -139 -135 -145 0 -6 -7 -11 -16 -11 -15 0 -16 17 -12 153 2 90 9 160
16 172 11 19 11 19 12 -2 0 -16 6 -23 20 -23 20 0 21 4 16 163 -2 89 -7 185
-11 212 l-7 50 21 -24 c11 -13 23 -32 26 -42z m-170 -1699 c4 0 20 -13 35 -30
15 -16 33 -30 38 -30 8 0 13 -241 16 -752 3 -414 8 -788 11 -830 l7 -78 -39 0
c-21 0 -65 -7 -98 -15 -105 -25 -99 -32 -91 98 4 61 11 195 16 297 5 102 14
282 19 400 6 118 14 382 19 585 5 204 12 377 16 383 6 10 12 8 26 -8 9 -11 21
-20 25 -20z m4810 -130 c3 -5 17 -10 31 -10 13 0 24 -4 24 -10 0 -5 9 -10 20
-10 11 0 20 -4 20 -10 0 -5 7 -10 15 -10 8 0 15 -3 15 -7 0 -5 25 -24 54 -43
30 -19 60 -45 65 -58 19 -40 11 -112 -11 -112 -6 0 -23 14 -38 30 -15 17 -31
30 -34 30 -4 0 -16 9 -28 20 -12 11 -30 20 -40 20 -10 0 -18 4 -18 9 0 17 -89
24 -397 28 l-313 4 0 24 c0 13 8 40 17 60 16 34 19 35 72 36 31 1 67 5 81 9
37 12 458 12 465 0z m515 -73 c0 -9 3 -17 8 -19 10 -4 42 -108 42 -136 0 -12
5 -22 10 -22 6 0 10 -15 10 -32 0 -39 48 -178 93 -267 36 -72 117 -161 147
-161 10 0 22 -4 25 -10 3 -5 17 -10 31 -10 13 0 24 -4 24 -10 0 -5 11 -10 25
-10 14 0 33 -4 43 -9 9 -5 30 -15 46 -22 25 -12 79 -61 114 -103 6 -8 12 -22
12 -31 0 -8 5 -15 10 -15 6 0 10 -9 10 -20 0 -11 5 -20 10 -20 6 0 10 -10 10
-23 0 -13 3 -27 6 -30 10 -10 43 -109 44 -129 0 -10 4 -18 9 -18 5 0 11 -15
14 -32 3 -18 13 -58 22 -88 23 -73 35 -144 45 -265 4 -55 13 -122 19 -150 6
-27 14 -67 17 -87 l6 -36 -43 -7 c-85 -12 -101 -12 -232 2 -124 13 -162 18
-334 43 -100 15 -421 31 -475 24 l-47 -6 -8 39 c-10 47 -10 1178 0 1216 l7 27
99 0 c78 0 101 3 112 16 16 19 37 218 38 352 1 83 3 92 16 78 8 -8 15 -21 15
-29z m-542 -310 c8 -9 11 -220 11 -677 0 -635 -1 -666 -19 -690 -17 -23 -21
-24 -52 -12 -19 6 -46 12 -61 12 -14 0 -29 5 -32 10 -3 6 -35 10 -71 10 -36 0
-64 4 -64 10 0 6 -27 10 -60 10 -33 0 -60 4 -60 9 0 4 -30 11 -67 15 -38 3
-78 9 -91 12 l-24 7 6 531 c6 591 6 569 13 684 l5 82 278 0 c214 0 280 -3 288
-13z m-1998 -1462 c14 -1 62 -3 106 -3 71 -2 82 -4 80 -19 -1 -14 8 -18 39
-20 51 -3 102 -15 139 -35 l30 -16 -42 -7 c-23 -4 -181 -3 -350 1 -370 8 -334
9 -567 -4 -192 -11 -307 -24 -380 -42 -22 -5 -116 -21 -210 -35 -93 -14 -197
-32 -230 -40 -33 -9 -121 -27 -195 -40 -74 -13 -171 -31 -215 -39 -44 -9 -123
-15 -176 -15 -54 1 -102 -2 -109 -6 -6 -4 -21 -9 -33 -11 -12 -2 -42 -8 -67
-14 -46 -11 -135 -26 -225 -39 -27 -3 -56 -10 -62 -14 -7 -5 -17 -6 -23 -2
-15 9 0 35 21 35 10 0 19 5 19 10 0 6 9 10 20 10 11 0 20 5 20 10 0 6 11 10
25 10 14 0 25 5 25 10 0 6 11 10 25 10 14 0 25 5 25 10 0 6 8 10 18 10 10 0
37 9 60 20 22 11 55 20 72 20 16 0 30 5 30 10 0 6 11 10 25 10 14 0 33 4 43 9
31 16 88 31 115 31 15 0 27 4 27 9 0 5 17 11 38 14 20 3 55 10 77 17 54 16
120 29 178 37 26 3 50 10 53 14 3 5 27 9 53 9 26 0 51 4 56 9 6 5 33 12 60 15
28 4 82 11 120 16 39 6 131 15 205 20 74 5 140 12 147 14 7 3 192 6 411 7 218
0 406 5 417 10 11 4 34 6 50 2 17 -3 41 -6 55 -8z m990 -64 c188 -26 229 -32
290 -40 36 -5 74 -11 85 -15 20 -6 104 -12 320 -25 66 -4 113 -8 105 -9 -12
-2 -12 -4 -2 -11 10 -6 0 -12 -30 -19 -46 -11 -379 -1 -553 17 -244 26 -324
32 -490 40 -172 9 -257 25 -238 45 5 5 -2 5 -14 2 -12 -4 -24 -2 -28 4 -4 6
11 10 42 10 26 0 55 5 63 10 18 13 343 6 450 -9z m2340 -188 c0 -24 -4 -28
-31 -30 -17 -1 -36 -7 -43 -12 -11 -9 -254 -71 -280 -71 -60 0 -93 64 -38 75
15 4 36 9 47 12 11 3 54 9 95 14 119 13 160 20 166 30 3 5 23 9 45 9 36 0 39
-2 39 -27z m50 -4 c0 -5 -7 -9 -15 -9 -9 0 -15 9 -15 21 0 18 2 19 15 9 8 -7
15 -16 15 -21z"/>
<path d="M7941 4593 c-16 -18 -40 -80 -41 -106 0 -9 -4 -25 -9 -35 -5 -9 -15
-32 -22 -50 -7 -19 -17 -39 -23 -45 -6 -7 -24 -37 -40 -67 -16 -30 -34 -58
-39 -61 -19 -13 14 -179 35 -179 5 0 8 -9 8 -20 0 -11 5 -20 10 -20 6 0 10 -9
10 -20 0 -11 3 -20 8 -20 4 0 16 -17 27 -37 11 -21 29 -47 40 -59 11 -12 29
-32 41 -45 12 -13 31 -32 43 -42 22 -18 23 -18 37 0 7 10 14 26 14 35 0 9 4
27 10 40 5 13 17 51 27 86 9 34 21 62 25 62 4 0 8 10 8 23 0 12 10 47 22 77
16 40 23 76 23 130 0 73 -2 78 -68 209 -38 74 -75 140 -82 147 -18 18 -47 17
-64 -3z"/>
<path d="M2840 6980 c-9 -6 -147 -10 -338 -10 -349 0 -352 0 -352 -53 0 -21 6
-26 43 -32 54 -10 719 -10 905 0 78 4 142 11 142 16 0 5 7 9 15 9 16 0 36 39
28 53 -2 4 -17 7 -33 7 -16 0 -32 5 -35 10 -8 13 -355 13 -375 0z"/>
<path d="M4875 6940 c-3 -5 -24 -10 -46 -10 -32 0 -39 -3 -39 -20 0 -19 7 -20
174 -20 149 0 175 2 180 16 16 43 12 44 -128 44 -79 0 -137 -4 -141 -10z"/>
<path d="M4530 6580 c-14 -4 -78 -8 -142 -9 -66 -1 -120 -5 -123 -11 -3 -5
-37 -10 -76 -10 -39 0 -69 -4 -69 -10 0 -5 -22 -10 -50 -10 -27 0 -50 -4 -50
-10 0 -5 -12 -10 -26 -10 -14 0 -31 -6 -38 -13 -41 -41 -44 -107 -6 -107 11 0
20 -4 20 -10 0 -6 50 -10 130 -10 80 0 130 -4 130 -10 0 -7 157 -10 450 -10
293 0 450 3 450 10 0 6 73 10 200 10 127 0 200 4 200 10 0 6 16 10 35 10 19 0
35 5 35 10 0 6 6 10 14 10 16 0 26 21 26 56 0 15 -6 24 -15 24 -8 0 -15 5 -15
10 0 6 -13 10 -30 10 -16 0 -30 5 -30 10 0 6 -18 10 -39 10 -22 0 -43 5 -46
10 -3 6 -33 10 -65 10 -32 0 -62 5 -65 10 -4 6 -70 10 -165 10 -95 0 -161 4
-165 10 -7 12 -438 12 -475 0z"/>
<path d="M2333 6435 c-20 -22 -16 -25 27 -25 22 0 40 -4 40 -10 0 -6 72 -10
195 -10 123 0 195 4 195 10 0 6 35 10 85 10 78 0 85 2 85 20 0 20 -7 20 -307
20 -253 -1 -310 -3 -320 -15z"/>
<path d="M4690 5940 c0 -6 -37 -10 -91 -10 -81 0 -94 -2 -110 -22 -25 -28 -25
-58 1 -58 11 0 20 -4 20 -10 0 -6 37 -10 90 -10 53 0 90 -4 90 -10 0 -6 113
-10 320 -10 207 0 320 4 320 10 0 6 43 10 110 10 67 0 110 4 110 10 0 6 12 10
26 10 28 0 64 33 64 57 0 42 -6 43 -489 43 -301 0 -461 -3 -461 -10z"/>
<path d="M8620 5920 c0 -5 -20 -10 -45 -10 -25 0 -45 -4 -45 -10 0 -5 -7 -10
-15 -10 -16 0 -19 -17 -9 -44 5 -14 28 -16 150 -16 89 0 144 4 144 10 0 6 11
10 25 10 18 0 25 5 25 20 0 11 -7 20 -15 20 -8 0 -15 5 -15 10 0 6 -28 10 -65
10 -37 0 -65 4 -65 10 0 6 -16 10 -35 10 -19 0 -35 -4 -35 -10z"/>
<path d="M3741 5083 c-1 -10 -38 -13 -151 -13 l-150 0 0 -199 c0 -150 3 -201
13 -204 9 -4 9 -8 0 -14 -10 -7 -17 -93 -14 -166 1 -16 15 -17 189 -15 l187 3
0 265 c0 335 1 330 -35 330 -16 0 -31 6 -33 13 -4 10 -6 10 -6 0z m49 -123 c0
-6 -57 -10 -150 -10 -93 0 -150 4 -150 10 0 6 57 10 150 10 93 0 150 -4 150
-10z m-20 -140 c0 -5 -18 -10 -40 -10 -22 0 -40 -4 -40 -10 0 -6 -40 -10 -100
-10 -55 0 -100 2 -100 5 0 3 6 12 13 20 15 17 267 22 267 5z m0 -160 c0 -6
-50 -10 -130 -10 -80 0 -130 4 -130 10 0 6 50 10 130 10 80 0 130 -4 130 -10z"/>
<path d="M3230 4800 c0 -5 7 -10 15 -10 8 0 15 5 15 10 0 6 -7 10 -15 10 -8 0
-15 -4 -15 -10z"/>
<path d="M4055 4500 c-3 -5 -17 -10 -31 -10 -13 0 -24 -4 -24 -10 0 -6 63 -10
170 -10 107 0 170 4 170 10 0 6 -9 10 -20 10 -11 0 -20 5 -20 10 0 6 -46 10
-119 10 -69 0 -122 -4 -126 -10z"/>
<path d="M2800 4482 c0 -25 30 -32 143 -32 112 0 201 12 222 31 5 5 -72 9
-178 9 -103 0 -187 -4 -187 -8z"/>
<path d="M2515 4214 c-10 -7 -15 -19 -12 -27 6 -17 84 -40 100 -30 6 4 107 11
222 15 204 7 294 13 344 24 19 4 21 8 12 17 -18 18 -642 18 -666 1z"/>
<path d="M4128 4213 c-49 -2 -88 -8 -88 -13 0 -13 107 -20 374 -26 162 -4 242
-2 249 5 8 8 6 11 -5 11 -9 0 -18 4 -20 9 -3 9 -374 20 -510 14z"/>
<path d="M4137 3984 c-8 -8 -405 -26 -552 -25 -60 0 -217 3 -347 6 l-238 6 0
-70 c0 -69 1 -71 25 -71 16 0 31 -10 42 -27 17 -25 18 -72 21 -606 2 -319 1
-590 -2 -603 -5 -17 -13 -24 -31 -24 -33 0 -39 -27 -28 -127 7 -65 11 -78 26
-77 9 0 274 1 587 2 l570 2 0 90 0 90 -35 0 c-28 0 -37 5 -44 23 -4 12 -9 300
-10 640 l-2 617 51 0 c31 0 57 6 66 14 17 18 18 83 2 119 -11 23 -19 27 -54
27 -22 0 -44 -3 -47 -6z m-172 -456 c-3 -112 -5 -206 -5 -210 0 -4 -46 -9
-102 -11 -57 -3 -117 -8 -134 -12 -25 -5 -33 -3 -39 12 -8 18 -7 386 1 407 3
7 52 12 144 14 l139 3 -4 -203z m-445 -15 c0 -109 -4 -204 -9 -212 -9 -14 -22
-13 -203 5 l-58 6 0 153 c0 84 -3 173 -6 199 l-7 46 142 0 141 0 0 -197z m2
-493 c4 -41 4 -138 0 -215 l-7 -140 -40 -7 c-22 -4 -82 -7 -132 -7 -82 -1 -93
1 -94 17 -1 9 0 103 1 207 2 165 4 191 18 200 10 6 60 13 112 16 147 9 134 15
142 -71z m436 58 c15 -19 16 -404 0 -414 -6 -4 -69 -9 -138 -12 l-127 -5 -6
33 c-9 41 -9 373 -1 394 5 13 27 16 134 16 90 0 131 -4 138 -12z"/>
<path d="M2142 3711 c-11 -6 -12 -25 -7 -83 6 -63 10 -76 28 -84 20 -8 23 -19
28 -129 5 -97 13 -724 10 -772 -1 -7 -12 -13 -26 -13 l-25 0 0 -107 c0 -60 4
-114 9 -122 7 -11 26 -12 93 -6 45 4 184 10 308 14 l225 6 8 60 c4 33 6 80 5
105 -3 38 -6 45 -25 48 l-23 3 0 440 c0 447 6 527 37 514 10 -3 13 13 13 60
l0 65 -309 0 c-170 0 -315 2 -323 5 -7 3 -19 1 -26 -4z m466 -388 l-3 -168
-125 0 -125 0 -3 145 c-1 80 0 155 3 168 5 21 9 22 130 22 l125 0 -2 -167z
m-10 -325 c11 -15 20 -297 10 -314 -5 -7 -46 -9 -120 -7 -174 6 -161 -3 -154
106 14 198 15 205 44 216 41 14 207 14 220 -1z"/>
<path d="M4416 3688 c-3 -13 -6 -44 -6 -70 0 -42 3 -48 24 -54 18 -4 27 -16
34 -47 6 -24 12 -218 13 -462 l3 -420 -27 -3 c-26 -3 -27 -5 -26 -65 0 -34 4
-83 7 -109 l7 -48 315 -2 315 -3 3 113 3 112 -30 0 c-25 0 -32 5 -37 26 -4 15
-5 227 -2 473 5 431 6 447 26 490 12 25 22 55 22 68 l0 23 -319 0 -319 0 -6
-22z m448 -244 c3 -26 6 -97 6 -159 l0 -113 -52 -6 c-29 -4 -86 -9 -125 -12
l-73 -6 0 155 c0 86 3 162 6 171 5 13 25 16 119 16 l112 0 7 -46z m8 -588 c2
-84 2 -160 0 -169 -3 -13 -23 -16 -118 -19 -63 -2 -119 -1 -124 0 -6 2 -10 67
-10 159 0 137 2 157 18 169 11 9 51 13 124 14 l107 0 3 -154z"/>
<path d="M1890 3260 l0 -30 67 0 c54 0 119 12 142 27 2 1 -4 9 -12 18 -12 11
-38 15 -106 15 l-91 0 0 -30z"/>
<path d="M5116 3275 c-16 -12 -17 -17 -6 -30 9 -11 33 -15 96 -15 46 0 84 2
84 4 0 2 3 11 6 19 4 11 -5 16 -38 21 -24 3 -61 8 -83 11 -27 4 -46 1 -59 -10z"/>
<path d="M1896 2974 c-8 -20 22 -46 44 -38 8 3 43 8 77 11 60 6 89 23 39 23
-14 0 -28 5 -31 10 -3 6 -32 10 -65 10 -44 0 -59 -4 -64 -16z"/>
<path d="M5117 2976 c-3 -8 -3 -17 0 -20 8 -8 173 -8 173 0 0 32 -162 50 -173
20z"/>
<path d="M1932 2678 c3 -8 26 -14 56 -16 43 -3 51 -1 46 12 -8 20 -108 23
-102 4z"/>
<path d="M1968 2383 c12 -2 30 -2 40 0 9 3 -1 5 -23 4 -22 0 -30 -2 -17 -4z"/>
<path d="M2035 2157 c-141 -10 -165 -18 -165 -53 0 -15 10 -16 113 -8 61 4
830 9 1707 10 877 1 1601 3 1608 3 17 1 15 36 -3 51 -12 10 -49 11 -163 5 -81
-5 -241 -8 -357 -8 -115 0 -316 0 -445 0 -129 0 -606 1 -1060 1 -454 0 -886 2
-960 5 -74 3 -198 0 -275 -6z"/>
<path d="M1980 1905 c-8 -2 -36 -7 -62 -10 -39 -5 -48 -10 -48 -26 0 -13 7
-19 23 -20 117 -3 3030 -3 3186 1 180 4 206 7 209 21 6 35 -49 40 -274 28
-128 -7 -340 -9 -540 -5 -390 7 -2472 16 -2494 11z"/>
<path d="M6053 2712 c-13 -2 -23 -8 -23 -13 0 -5 -60 -9 -139 -9 -149 0 -151
-1 -151 -55 0 -51 1 -52 145 -47 159 5 165 3 165 -70 0 -88 0 -88 -160 -88
l-140 0 0 -40 0 -40 129 0 c96 0 131 -3 140 -14 13 -16 13 -54 -2 -119 -11
-47 -12 -48 -42 -43 -16 4 -74 9 -127 12 l-98 7 0 -52 0 -51 139 0 c131 0 141
-1 155 -21 31 -45 36 -13 36 257 0 169 4 264 10 264 6 0 10 26 10 59 0 62 -6
70 -47 63z"/>
</g>
</svg>
