<svg xmlns="http://www.w3.org/2000/svg" width="588" height="319" viewBox="0 0 588 319" version="1.1"><path d="M 217.500 16.539 C 216.400 16.716, 210.550 17.369, 204.500 17.988 C 169.630 21.561, 151.851 28.908, 131.537 48.137 C 122.845 56.364, 110.846 71.306, 104.928 81.271 C 101.589 86.892, 101.409 87.025, 98 86.406 C 96.075 86.056, 91.484 85.252, 87.798 84.618 L 81.095 83.466 75.119 71.323 C 71.442 63.853, 68.442 58.979, 67.321 58.658 C 66.320 58.371, 56.612 57.825, 45.750 57.446 C 29.346 56.873, 26 56.989, 25.998 58.128 C 25.997 58.883, 27.667 64.112, 29.710 69.750 L 33.425 80 48.962 80.015 C 64.102 80.029, 69.411 80.943, 69.189 83.497 C 69.141 84.045, 67.503 84.825, 65.547 85.232 C 57.048 86.998, 47.526 93.539, 43.532 100.355 C 32.514 119.160, 34.565 172.219, 47.914 213.735 C 56.029 238.974, 66.759 250.210, 88.201 255.924 C 95.850 257.963, 115.900 260.434, 116.875 259.458 C 117.696 258.638, 114.841 257.035, 112.500 257.002 C 109.217 256.956, 98.575 253.318, 91.819 249.931 C 83.419 245.721, 74.274 239.152, 69.582 233.959 C 61.079 224.548, 53.944 202.675, 48.880 170.500 C 48.170 165.991, 47.600 153.117, 47.572 141 C 47.518 116.890, 48.679 110.271, 54.123 103.667 C 60.741 95.638, 74.695 92.367, 89 95.491 C 96.662 97.165, 119.934 99.439, 160 102.430 C 172.375 103.354, 190.600 104.741, 200.500 105.513 C 210.400 106.285, 227.950 107.624, 239.500 108.490 C 251.050 109.355, 265.225 110.500, 271 111.034 C 283.840 112.222, 284 112.222, 284 111.072 C 284 110.562, 281.413 109.852, 278.250 109.495 C 275.087 109.139, 263.725 107.730, 253 106.364 C 242.275 104.999, 230.125 103.485, 226 103.001 C 221.875 102.517, 215.350 101.673, 211.500 101.125 C 207.650 100.578, 198.650 99.398, 191.500 98.502 C 184.350 97.607, 173.775 96.246, 168 95.477 C 162.225 94.709, 148.050 92.901, 136.500 91.459 C 124.950 90.017, 114.935 88.662, 114.244 88.448 C 111.685 87.654, 125.222 68.989, 136.608 57.613 C 147.356 46.873, 161.205 38.014, 172.924 34.381 C 180.092 32.159, 196.366 29.234, 209.500 27.807 C 226.845 25.922, 359.201 25.965, 378 27.862 C 394.062 29.483, 407.589 32.093, 417.140 35.414 C 430.942 40.214, 445.773 50.971, 457.577 64.742 C 464.640 72.984, 474 86.212, 474 87.955 C 474 88.530, 472.574 89, 470.832 89 C 469.089 89, 464.927 89.427, 461.582 89.949 C 458.237 90.472, 449.875 91.608, 443 92.474 C 425.086 94.730, 408.095 96.909, 396 98.500 C 390.225 99.260, 379.875 100.599, 373 101.476 C 366.125 102.353, 355.550 103.717, 349.500 104.506 C 330.766 106.951, 315.750 108.840, 309.750 109.506 C 306.587 109.857, 304 110.620, 304 111.201 C 304 111.877, 305.711 112.047, 308.750 111.674 C 311.363 111.352, 317.325 110.823, 322 110.498 C 326.675 110.172, 338.600 109.266, 348.500 108.483 C 358.400 107.700, 375.950 106.352, 387.500 105.486 C 399.050 104.620, 416.825 103.268, 427 102.482 C 437.175 101.697, 454.950 100.351, 466.500 99.493 C 478.050 98.634, 490.200 97.192, 493.500 96.288 C 496.967 95.339, 503.518 94.614, 509.020 94.572 C 517.840 94.505, 519.031 94.742, 525.233 97.795 C 532.508 101.375, 534.932 104.042, 537.313 111.083 C 546.014 136.814, 536.588 205.733, 521.063 229.895 C 514.029 240.842, 492.285 253.912, 475.951 257.009 C 470.583 258.027, 469.262 258.596, 470.166 259.499 C 471.030 260.364, 492.226 257.953, 498.500 256.277 C 515.509 251.732, 526.412 243.118, 533.499 228.625 C 542.951 209.294, 549.585 178.481, 550.641 149.007 C 551.634 121.270, 548.524 104.778, 540.700 96.290 C 536.349 91.570, 527.747 86.025, 524.750 86.009 C 522.417 85.997, 522.541 84.726, 525.102 82.405 C 526.960 80.721, 529.151 80.464, 543.968 80.186 L 560.732 79.872 564.434 70.186 C 566.470 64.859, 568.399 59.653, 568.720 58.617 C 569.282 56.800, 568.587 56.758, 548.901 57.431 C 537.681 57.815, 527.667 58.369, 526.649 58.664 C 525.472 59.004, 522.639 63.718, 518.875 71.600 L 512.952 84 506.726 84.035 C 500.691 84.069, 488.506 86.161, 487.296 87.371 C 486.968 87.698, 484.679 84.712, 482.208 80.733 C 467.071 56.361, 448.045 38.096, 427.755 28.461 C 419.183 24.390, 404.644 20.609, 388.767 18.321 C 379.256 16.951, 365.185 16.660, 298.500 16.458 C 255.050 16.325, 218.600 16.362, 217.500 16.539 M 68.197 120.750 C 62.208 135.401, 61.722 144.783, 66.564 152.218 C 70.857 158.809, 88.011 165.849, 119.500 173.943 C 134.724 177.856, 153.345 182, 155.705 182 C 161.660 182, 144.262 160.041, 130 149.557 C 119.556 141.880, 90.330 128.336, 88.392 130.275 C 88.087 130.580, 92.170 136.096, 97.465 142.535 C 102.760 148.973, 106.875 154.458, 106.610 154.723 C 105.599 155.734, 92.866 150.713, 87.276 147.100 C 73.922 138.469, 68.897 127.590, 72.565 115.250 C 72.932 114.013, 72.813 113, 72.299 113 C 71.785 113, 69.939 116.487, 68.197 120.750 M 514.585 115.250 C 516.053 119.282, 515.513 130.266, 513.677 133.734 C 509.626 141.387, 497.196 150.559, 486.997 153.421 C 483.600 154.374, 480.671 155.005, 480.489 154.823 C 480.307 154.640, 484.610 149.093, 490.051 142.496 C 495.492 135.898, 499.956 130.197, 499.972 129.826 C 500.008 128.972, 491.945 131.804, 481.070 136.465 C 468.115 142.018, 457.591 148.737, 448.419 157.310 C 440.671 164.553, 430 178.522, 430 181.422 C 430 185.177, 501.298 165.704, 513.295 158.673 C 520.616 154.383, 523.378 150.007, 523.831 141.981 C 524.250 134.561, 522.574 127.379, 518.331 118.418 C 515.822 113.118, 512.915 110.659, 514.585 115.250 M 174.600 166.368 C 169.480 175.762, 169.395 176.271, 171.466 185.188 C 175.389 202.082, 182.602 216.468, 192.235 226.610 C 200.500 235.312, 207.886 239.201, 221.646 242.097 C 230.209 243.900, 233.989 244.114, 250.500 243.729 C 268.388 243.313, 285 241.493, 285 239.950 C 285 239.234, 275.567 238.145, 246.500 235.506 C 216.941 232.821, 219.650 233.429, 215.069 228.459 C 212.831 226.031, 211 223.775, 211 223.445 C 211 223.115, 226.073 222.957, 244.496 223.094 C 262.919 223.230, 278.294 223.040, 278.663 222.671 C 279.032 222.302, 278.903 222, 278.377 222 C 277.850 222, 272.488 221.356, 266.460 220.570 C 260.432 219.783, 249.425 218.420, 242 217.541 C 215.545 214.409, 211.472 213.897, 209.228 213.427 C 207.760 213.119, 205.347 210.442, 202.417 205.870 C 199.920 201.975, 198.018 198.677, 198.189 198.539 C 198.586 198.221, 230.177 199.743, 258 201.421 C 269.825 202.135, 279.883 202.376, 280.351 201.959 C 281.451 200.975, 279.204 200.343, 270 199.046 C 265.875 198.465, 247.289 195.404, 228.699 192.245 L 194.897 186.500 192.480 180.552 C 191.150 177.281, 190.218 174.449, 190.408 174.259 C 190.598 174.069, 197.221 174.611, 205.127 175.463 C 213.032 176.315, 233.450 178.360, 250.500 180.007 C 267.550 181.655, 283.188 183.233, 285.250 183.513 C 289.255 184.058, 290.616 182.339, 286.750 181.619 C 280.194 180.396, 227.199 168.908, 209.500 164.872 C 204.550 163.743, 196.450 161.954, 191.500 160.896 C 186.550 159.838, 181.758 158.738, 180.850 158.451 C 179.605 158.057, 178.072 159.999, 174.600 166.368 M 402 159.550 C 395.263 161.206, 376.321 165.439, 348.500 171.507 C 336.950 174.026, 322.654 177.193, 316.731 178.544 C 310.808 179.895, 304.958 181.007, 303.731 181.015 C 301.343 181.032, 298.247 182.581, 299.033 183.366 C 299.294 183.627, 308.056 182.993, 318.504 181.957 C 362.364 177.607, 370.163 176.818, 383.367 175.395 C 390.993 174.573, 397.420 174.086, 397.647 174.314 C 397.875 174.541, 396.907 177.389, 395.496 180.643 L 392.930 186.558 358.215 192.431 C 339.122 195.661, 320.800 198.680, 317.500 199.140 C 308.958 200.330, 306.583 200.996, 307.605 201.915 C 308.097 202.357, 318.175 202.135, 330 201.421 C 358.933 199.676, 389.421 198.225, 389.845 198.573 C 390.035 198.729, 388.140 202.026, 385.634 205.899 C 382.691 210.448, 380.267 213.113, 378.789 213.423 C 376.529 213.897, 372.480 214.405, 346 217.541 C 338.575 218.420, 327.568 219.783, 321.540 220.570 C 315.512 221.356, 310.150 222, 309.623 222 C 309.097 222, 308.968 222.302, 309.337 222.671 C 309.706 223.040, 325.081 223.230, 343.504 223.094 C 361.927 222.957, 377 223.115, 377 223.445 C 377 223.775, 375.169 226.031, 372.931 228.459 C 368.350 233.429, 371.059 232.821, 341.500 235.506 C 312.433 238.145, 303 239.234, 303 239.950 C 303 241.471, 319.531 243.276, 337.500 243.717 C 354.023 244.123, 357.769 243.916, 366.235 242.128 C 381.714 238.860, 390.255 233.957, 399.097 223.263 C 406.812 213.930, 415.938 192.705, 417.561 180.321 C 418.198 175.456, 417.955 174.620, 413.567 166.571 C 410.998 161.857, 408.581 158.045, 408.198 158.099 C 407.814 158.154, 405.025 158.807, 402 159.550 M 73 177.669 C 66.209 178.587, 68.115 179.651, 81.238 182.267 C 105.563 187.115, 123.539 194.488, 134.198 203.989 C 139.757 208.943, 141.302 211.362, 156.564 239 C 166.602 257.177, 179.525 267.360, 196.073 270.130 C 204.643 271.564, 224.554 270.578, 239.500 267.979 C 265.044 263.537, 304.063 253.092, 286.500 255.397 C 257.545 259.198, 221.131 261.254, 204.715 260.016 C 191.710 259.035, 184.771 256.498, 177.753 250.158 C 172.534 245.443, 169.723 241.214, 160.005 223.461 C 155.500 215.233, 150.380 206.640, 148.627 204.368 C 140.730 194.131, 124.630 184.098, 109.489 179.980 C 101.547 177.819, 81.351 176.541, 73 177.669 M 484.500 178.466 C 468.766 181.356, 450.838 190.825, 441.558 201.147 C 437.371 205.804, 432.837 213.272, 422.521 232.500 C 414.444 247.555, 406.327 255.096, 394.468 258.561 C 383.177 261.861, 337.181 260.285, 301.750 255.385 C 298.937 254.996, 297 255.118, 297 255.684 C 297 256.544, 319.947 262.287, 334 264.945 C 355.925 269.091, 384.230 271.039, 394.500 269.108 C 407.449 266.672, 419.628 257.835, 427.093 245.457 C 429.069 242.181, 434.244 233, 438.593 225.055 C 447.274 209.195, 452.315 203.249, 461.749 197.737 C 473.667 190.773, 490.275 185.152, 509.750 181.491 C 514.837 180.534, 519 179.422, 519 179.018 C 519 176.872, 495.247 176.492, 484.500 178.466 M 76.387 190.406 C 77.995 196.814, 86.890 215.190, 92.299 223.282 C 100.942 236.209, 108.071 241.101, 123.162 244.456 C 131.092 246.219, 148.662 246.264, 148.292 244.521 C 148.178 243.982, 145.253 243.013, 141.792 242.368 C 121.998 238.680, 108.549 229.681, 101.935 215.701 C 100.322 212.291, 99.001 208.749, 99.001 207.832 C 99 205.399, 97.928 203, 96.843 203 C 96.282 203, 96.172 205.529, 96.572 209.250 C 97.008 213.316, 96.902 215.151, 96.268 214.500 C 95.731 213.950, 91.338 207.975, 86.505 201.222 C 77 187.941, 75.317 186.142, 76.387 190.406 M 506.849 201.063 L 497.500 214.126 497.200 208.563 C 497.035 205.503, 496.505 203, 496.021 203 C 495.537 203, 494.651 205.363, 494.051 208.250 C 491.856 218.811, 483.605 229.307, 473.212 234.758 C 466.795 238.124, 456.547 241.669, 450.010 242.785 C 447.616 243.194, 445.472 244.085, 445.245 244.764 C 444.638 246.585, 462.246 246.378, 470.482 244.468 C 478.770 242.546, 486.531 239.134, 490.778 235.545 C 498.658 228.886, 508.218 213.416, 514.591 197.012 C 516.191 192.893, 517.650 189.181, 517.833 188.762 C 518.017 188.343, 517.724 188, 517.182 188 C 516.641 188, 511.991 193.878, 506.849 201.063 M 50 293.955 C 50 294.480, 51.462 295.148, 53.250 295.439 C 55.038 295.731, 67.525 297.860, 81 300.171 C 111.921 305.474, 117.353 305.645, 190 303.595 C 251.032 301.874, 304.687 300.487, 367 299.020 C 529.882 295.187, 539 294.915, 539 293.889 C 539 293.373, 436.544 293, 294.500 293 C 139.903 293, 50 293.351, 50 293.955" stroke="none" fill="#fffcfc" fill-rule="evenodd"/><path d="" stroke="none" fill="#fcfcfc" fill-rule="evenodd"/></svg>