<?xml version="1.0" standalone="no"?>
<!DOCTYPE svg PUBLIC "-//W3C//DTD SVG 20010904//EN"
 "http://www.w3.org/TR/2001/REC-SVG-20010904/DTD/svg10.dtd">
<svg version="1.0" xmlns="http://www.w3.org/2000/svg"
 width="218.000000pt" height="282.000000pt" viewBox="0 0 218.000000 282.000000"
 preserveAspectRatio="xMidYMid meet">

<g transform="translate(0.000000,282.000000) scale(0.100000,-0.100000)"
fill="#ffffff" stroke="none">
<path d="M199 2734 l-24 -26 -3 -1201 c-3 -1199 -3 -1202 18 -1235 12 -20 39
-42 68 -55 44 -20 69 -22 342 -27 l295 -6 60 -28 c33 -16 72 -35 87 -42 47
-25 78 -18 122 28 l40 43 280 6 c358 8 384 12 439 67 l42 42 3 1212 c2 1119 1
1213 -14 1230 -16 17 -54 18 -874 18 l-857 0 -24 -26z m1721 -74 l0 -50 -845
0 -845 0 0 43 c0 24 3 47 7 50 3 4 384 7 845 7 l838 0 0 -50z m0 -120 l0 -60
-404 0 -405 0 -24 40 -24 40 -18 -40 -18 -40 -399 0 -398 0 0 60 0 60 845 0
845 0 0 -60z m-806 -101 l36 -60 0 -700 0 -699 -35 0 -35 0 -2 673 -3 672 -2
-672 -3 -673 -35 0 -35 0 0 694 0 693 31 71 c18 40 35 69 39 67 4 -3 24 -32
44 -66z m-94 27 c0 -2 -9 -23 -20 -47 -11 -24 -20 -59 -20 -77 l0 -33 -152 5
c-197 8 -239 8 -435 1 l-163 -7 0 81 0 81 395 0 c217 0 395 -2 395 -4z m900
-77 l0 -80 -167 5 c-221 8 -261 8 -435 1 l-148 -7 0 37 c0 21 -11 55 -26 81
l-26 44 401 0 401 0 0 -81z m-1250 -80 c168 -38 247 -230 154 -372 -121 -183
-406 -130 -454 86 -26 121 55 250 178 283 58 16 66 16 122 3z m910 0 c168 -38
247 -230 154 -372 -121 -183 -406 -130 -454 86 -26 121 55 250 178 283 58 16
66 16 122 3z m-1126 -31 c-17 -12 -47 -44 -65 -70 l-34 -47 -62 -1 -63 0 0 70
0 70 127 0 128 0 -31 -22z m526 -48 l0 -70 -58 0 c-56 0 -58 1 -77 36 -11 20
-37 51 -59 70 l-40 34 117 0 117 0 0 -70z m364 28 c-24 -23 -52 -54 -62 -70
-14 -24 -22 -28 -64 -28 l-48 0 0 70 0 70 110 0 110 0 -46 -42z m576 -28 l0
-70 -74 0 c-73 0 -74 0 -86 30 -7 17 -33 49 -58 70 l-45 40 132 0 131 0 0 -70z
m-1575 -97 c-4 -10 -10 -42 -13 -70 l-4 -53 -49 0 -49 0 0 70 0 70 61 0 c54 0
60 -2 54 -17z m635 -53 l0 -70 -52 0 -53 0 0 70 -1 70 53 0 53 0 0 -70z m269
38 c-5 -18 -9 -50 -9 -70 0 -37 -1 -38 -35 -38 l-35 0 0 70 0 70 44 0 45 0
-10 -32z m671 -38 l0 -70 -67 0 -68 0 0 70 -1 70 68 0 68 0 0 -70z m-1571
-121 c8 -26 31 -60 61 -90 l49 -49 -114 0 -115 0 0 90 0 90 53 0 54 0 12 -41z
m631 -49 l0 -90 -113 0 c-63 0 -116 3 -119 6 -3 3 15 25 42 50 26 24 55 62 65
84 18 39 19 40 72 40 l53 0 0 -90z m270 72 c0 -25 51 -104 85 -130 l28 -22
-97 0 -96 0 0 85 0 85 40 0 c32 0 40 -4 40 -18z m670 -152 l0 -170 -375 0
-375 0 0 80 0 80 90 0 c49 0 124 -8 166 -17 67 -15 84 -15 133 -3 31 7 124 16
206 20 l150 6 -132 2 -132 2 48 45 c26 25 56 63 66 85 l18 40 69 0 68 0 0
-170z m-1325 -31 c28 0 125 3 218 7 l167 6 0 -81 0 -81 -375 0 -375 0 0 81 0
81 158 -6 c86 -4 180 -7 207 -7z m1325 -234 l0 -85 -64 0 c-63 0 -64 0 -89 39
-55 82 -148 127 -246 118 -77 -7 -129 -35 -188 -102 -48 -54 -48 -55 -105 -55
l-58 0 0 85 0 85 375 0 375 0 0 -85z m-1392 61 c-54 -20 -81 -39 -130 -96
l-43 -50 -62 0 -63 0 0 80 0 80 168 0 c152 -1 164 -2 130 -14z m452 -66 l0
-80 -59 0 c-57 0 -59 1 -84 39 -32 47 -80 86 -133 105 -37 14 -30 15 119 15
l157 1 0 -80z m-310 59 c168 -38 247 -230 154 -372 -121 -183 -406 -130 -454
86 -26 121 55 250 178 283 58 16 66 16 122 3z m930 0 c168 -38 247 -230 154
-372 -121 -183 -406 -130 -454 86 -26 121 55 250 178 283 58 16 66 16 122 3z
m-1256 -176 c-5 -16 -9 -54 -9 -85 l0 -58 -52 0 -53 0 0 85 0 85 61 0 61 0 -8
-27z m636 -58 l0 -85 -52 0 -53 0 0 85 0 85 52 0 53 0 0 -85z m294 58 c-5 -16
-9 -54 -9 -85 l0 -58 -47 0 -48 0 0 85 0 85 56 0 56 0 -8 -27z m646 -58 l0
-85 -57 0 -58 0 0 85 0 85 57 0 58 0 0 -85z m-1570 -121 c17 -43 50 -84 93
-115 l40 -29 -126 0 -127 0 0 85 0 85 55 0 c51 0 56 -2 65 -26z m630 -59 l0
-85 -137 0 -137 0 49 35 c44 31 105 105 105 127 0 4 27 8 60 8 l60 0 0 -85z
m300 59 c17 -43 50 -84 93 -115 l40 -29 -121 0 -122 0 0 85 0 85 50 0 c45 0
52 -3 60 -26z m640 -59 l0 -85 -142 0 -142 0 49 35 c44 31 105 105 105 127 0
4 29 8 65 8 l65 0 0 -85z m-940 -171 l0 -74 -375 0 -375 0 0 74 0 75 375 0
375 0 0 -75z m940 5 l0 -69 -375 0 -375 0 0 69 0 70 375 0 375 0 0 -70z m-749
-121 c26 -99 87 -171 155 -184 20 -4 61 -1 91 6 30 6 57 9 61 6 10 -11 -24
-69 -73 -123 l-46 -53 -109 55 c-61 30 -111 55 -112 55 -2 0 -3 -46 -3 -102 0
-123 -10 -148 -60 -148 -50 0 -60 25 -60 148 0 56 -1 102 -3 102 -1 0 -51 -25
-111 -55 l-110 -54 -47 52 c-48 53 -82 112 -72 123 4 3 31 0 61 -6 71 -16 119
-7 163 32 38 34 61 72 79 133 11 36 16 41 51 46 21 3 60 7 86 8 l47 1 12 -42z
m749 -33 l0 -75 -342 2 -343 3 -21 45 c-12 25 -24 57 -28 73 l-6 27 370 0 370
0 0 -75z m-960 34 c-5 -17 -17 -47 -27 -67 l-18 -37 -342 -3 -343 -2 0 70 0
70 369 0 370 0 -9 -31z m-80 -139 c-36 -28 -84 -35 -147 -20 -48 10 -57 10
-71 -4 -15 -14 -14 -20 6 -61 l22 -45 -230 0 -230 0 0 75 0 75 338 0 c336 0
337 0 312 -20z m1040 -55 l0 -75 -230 0 -230 0 22 45 c20 41 21 47 6 61 -14
14 -23 14 -71 4 -63 -15 -111 -8 -147 20 -25 20 -24 20 313 20 l337 0 0 -75z
m-1176 -131 l41 -46 93 46 c50 25 97 46 104 46 9 0 13 -21 13 -75 l0 -75 -382
0 -383 0 0 75 0 75 236 0 236 0 42 -46z m528 0 l93 -46 41 46 42 46 236 0 236
0 0 -75 0 -75 -382 0 -383 0 0 75 c0 54 4 75 13 75 7 0 54 -21 104 -46z m-267
-134 c10 -33 34 -50 70 -50 36 0 60 17 70 50 6 20 16 20 391 20 l384 0 0 -70
0 -70 -851 0 -852 0 7 53 c3 28 6 60 6 70 0 16 25 17 384 17 375 0 385 0 391
-20z m905 -138 c0 -5 -12 -19 -26 -33 l-25 -24 -331 4 c-325 3 -330 3 -344
-18 -13 -18 -25 -21 -88 -21 -65 0 -74 2 -85 23 l-12 22 -337 0 c-324 0 -339
1 -384 22 -27 12 -48 24 -48 27 0 3 378 6 840 6 462 0 840 -4 840 -8z m-769
-120 c-5 -9 -19 -26 -31 -37 l-22 -20 -24 30 c-13 17 -24 33 -24 38 0 4 25 7
55 7 50 0 55 -2 46 -18z"/>
</g>
</svg>
