<?xml version="1.0" encoding="utf-8"?>
<svg version="1.0" width="112.000000pt" height="122.000000pt" viewBox="0 0 112.000000 122.000000" preserveAspectRatio="xMidYMid meet" xmlns="http://www.w3.org/2000/svg">
  <defs/>
  <g transform="translate(0.000000,122.000000) scale(0.100000,-0.100000)" fill="#000000" stroke="none">
    <path d="M451 1015 c-206 -58 -340 -259 -310 -468 10 -75 25 -108 45 -100 13&#10;5 14 13 7 42 -4 20 -8 79 -8 131 0 89 2 99 34 158 85 157 249 235 417 197 79&#10;-17 174 -71 212 -120 12 -15 37 -58 55 -94 29 -59 32 -74 32 -156 0 -85 -2&#10;-96 -38 -167 -59 -121 -153 -189 -289 -209 -60 -9 -83 -9 -132 4 -45 12 -63&#10;13 -73 5 -19 -15 -8 -23 56 -42 74 -22 136 -20 217 5 121 37 206 111 263 229&#10;34 71 36 80 36 175 0 92 -3 106 -32 167 -53 111 -142 194 -253 233 -66 23&#10;-175 28 -239 10z" style="fill: rgb(255, 255, 255);"/>
    <path d="M396 721 l-128 -128 131 -8 131 -7 0 -76 c0 -43 3 -101 7 -130 l6&#10;-54 128 128 129 129 0 137 0 138 -138 0 -137 0 -129 -129z m364 -18 l0 -108&#10;-95 -100 -94 -100 -1 101 c0 64 -4 104 -12 112 -7 7 -38 12 -69 12 -31 0 -71&#10;3 -89 6 l-32 7 88 88 89 89 107 0 108 0 0 -107z" style="fill: rgb(255, 255, 255);"/>
    <path d="M295 520 c-3 -5 -49 -119 -106 -263 l-19 -47 33 13 c17 8 85 35 150&#10;62 l117 48 0 93 0 93 -86 3 c-47 2 -87 1 -89 -2z m133 -102 l-3 -62 -92 -37&#10;c-86 -35 -91 -36 -83 -16 4 12 18 47 30 77 12 30 26 65 31 78 7 19 16 22 64&#10;22 l56 0 -3 -62z" style="fill: rgb(255, 255, 255);"/>
  </g>
</svg>